<svg width="472" height="519" viewBox="0 0 472 519" fill="none" xmlns="http://www.w3.org/2000/svg">
<path d="M424.567 212.917C445.847 317.044 446.542 445.542 342.687 466.766C238.833 487.989 129.106 446.45 65.0713 338.071C11.5957 247.563 30.8876 156.398 176.506 49.1085C302.497 -18.6348 403.288 108.791 424.567 212.917Z" fill="#F8EEEC"/>
<path d="M170.909 310.203C154.564 308.35 151.116 357.881 151.435 382.878C150.635 376.699 137.2 370.01 126.55 381.472C90.259 442.272 136.276 463.024 155.655 469.269C175.033 475.514 213.142 482.567 225.036 449.966C243.824 423.843 234.023 419.042 226.774 419.906C230.931 412.248 234.254 397.49 214.289 399.719C226.286 390.303 251.562 339.182 243.391 326.467C236.853 316.294 202.548 359.732 186.213 382.723C187.922 359.322 187.254 312.057 170.909 310.203Z" fill="#FEC90D"/>
<path d="M151.409 381.818C159.516 393.463 172.56 417.589 159.876 420.927C147.193 424.265 138.189 410.204 135.272 402.756" stroke="black" stroke-linecap="round"/>
<path d="M210.263 401.798C199.71 408.444 181.078 424.293 190.969 434.522C200.859 444.75 217.106 429.947 223.993 421.266" stroke="black" stroke-linecap="round"/>
<path d="M223.763 449.625C216.97 452.717 196.053 454.831 200.264 439.118" stroke="black" stroke-linecap="round"/>
<path d="M339.025 195.324C298.356 205.491 314.963 260.395 330.892 277.679C345.126 293.125 390.879 292.93 402.063 277.679C415.025 267.846 417.017 248.651 417.314 227.859C417.692 201.354 415.28 172.956 409.18 172.956C406.13 172.956 404.096 172.956 402.063 183.123C403.08 168.889 397.996 148.554 390.879 147.537C383.762 146.521 382.745 156.688 382.745 154.654C382.745 152.621 380.711 133.303 369.527 133.303C360.58 133.303 359.021 148.215 359.36 155.671C358.004 151.943 354.276 144.487 350.209 144.487C345.126 144.487 339.025 143.47 339.025 195.324Z" fill="#01B0B5"/>
<path d="M339.036 196.341C344.459 196.341 355.304 197.967 355.304 204.474C355.304 212.608 342.087 218.709 339.036 217.692C335.986 216.675 349.204 240.06 347.17 267.512" stroke="black" stroke-linecap="round"/>
<path d="M359.371 157.705L361.404 203.458" stroke="black" stroke-linecap="round"/>
<path d="M382.756 155.671V203.458" stroke="black" stroke-linecap="round"/>
<path d="M402.073 184.14V207.525" stroke="black" stroke-linecap="round"/>
<path d="M411.224 212.608C403.429 207.863 381.535 199.797 356.32 205.491" stroke="black" stroke-linecap="round"/>
<path d="M89.7138 123.567C91.4386 139.953 103.368 151.236 109.118 154.829C139.302 173.155 178.11 159.141 181.344 158.063C184.578 156.985 200.748 148.361 197.514 116.021C213.9 92.7361 201.467 81.1656 193.202 78.2909C191.046 64.2771 180.266 61.0429 170.564 65.3549C165.174 54.5748 149.004 55.6528 142.536 64.2771C138.224 53.497 116.664 52.419 109.118 75.0571C87.5578 81.5251 87.5578 103.085 89.7138 123.567Z" fill="#A774EB"/>
<path d="M134.078 150.516C135.516 140.096 133.863 116.236 115.752 104.162C130.413 96.4007 131.204 86.555 129.766 82.6023C128.688 80.087 123.083 75.4875 109.284 77.2123" stroke="black" stroke-linecap="round"/>
<path d="M123.298 100.929C124.017 103.804 126.964 109.553 133 109.553C140.546 109.553 150.248 107.397 142.702 66.4329" stroke="black" stroke-linecap="round"/>
<path d="M171.808 67.5106C171.808 78.2977 172.652 94.5663 169.064 105.241C166.915 111.634 163.177 116.021 156.716 116.021C149.161 116.021 142.702 109.553 142.702 106.319" stroke="black" stroke-linecap="round"/>
<path d="M193.368 79.3689C193.368 91.5863 190.697 113.865 179.354 113.865C172.886 113.865 169.652 109.553 169.652 106.319" stroke="black" stroke-linecap="round"/>
<path d="M187.979 110.631C188.338 113.146 190.566 117.746 196.603 116.021" stroke="black" stroke-linecap="round"/>
<path d="M279.205 420.87C278.377 420.838 277.681 421.484 277.649 422.312C277.618 423.139 278.263 423.836 279.091 423.868L279.205 420.87ZM384.655 313.269C384.097 312.657 383.148 312.613 382.536 313.172L372.562 322.269C371.95 322.827 371.906 323.776 372.464 324.388C373.022 325 373.971 325.044 374.583 324.485L383.449 316.399L391.536 325.265C392.094 325.877 393.043 325.921 393.655 325.362C394.267 324.804 394.311 323.855 393.752 323.243L384.655 313.269ZM279.091 423.868C328.919 425.763 381.946 381.744 385.045 314.349L382.048 314.211C379.018 380.1 327.25 422.698 279.205 420.87L279.091 423.868Z" fill="black"/>
<path d="M98.71 197.915C99.2911 197.324 99.2836 196.374 98.6932 195.793C98.1027 195.212 97.153 195.22 96.5719 195.81L98.71 197.915ZM107.151 348.335C107.979 348.335 108.651 347.663 108.651 346.835L108.651 333.335C108.651 332.507 107.979 331.835 107.151 331.835C106.322 331.835 105.651 332.507 105.651 333.335L105.651 345.335L93.651 345.335C92.8225 345.335 92.151 346.007 92.151 346.835C92.151 347.664 92.8226 348.335 93.651 348.335L107.151 348.335ZM96.5719 195.81C61.594 231.348 58.384 300.19 106.09 347.896L108.212 345.774C61.5716 299.135 64.9833 232.181 98.71 197.915L96.5719 195.81Z" fill="black"/>
<path d="M349.35 115.4C349.679 116.16 350.562 116.51 351.322 116.182C352.083 115.853 352.433 114.97 352.104 114.21L349.35 115.4ZM222.264 92.6531C222.01 93.4417 222.444 94.2867 223.233 94.5404L236.084 98.6745C236.873 98.9281 237.718 98.4945 237.971 97.7059C238.225 96.9172 237.791 96.0723 237.003 95.8186L225.579 92.1438L229.254 80.7203C229.508 79.9317 229.074 79.0867 228.285 78.8331C227.497 78.5794 226.652 79.013 226.398 79.8017L222.264 92.6531ZM352.104 114.21C336.451 78.0042 280.758 62.1387 223.007 91.7779L224.377 94.4469C281.354 65.2048 334.687 81.4839 349.35 115.4L352.104 114.21Z" fill="black"/>
</svg>
