<svg width="600" height="467" viewBox="0 0 600 467" fill="none" xmlns="http://www.w3.org/2000/svg">
<path d="M30.091 203.464C15.3647 213.847 48.6039 256.893 67.0643 277.119C61.9105 272.644 46.0455 276.952 45.6743 294.087C60.2388 370.267 113.007 353.748 133.414 344.75C153.82 335.753 190.144 313.78 176.142 278.44C172.501 243.382 160.984 246.588 155.681 252.573C153.508 243.279 145.483 228.782 130.766 245.142C133.728 228.701 117.197 168.461 101.252 164.004C88.4956 160.438 92.0447 220.964 95.4137 251.673C79.7754 231.277 44.8172 193.081 30.091 203.464Z" fill="#FEC90D"/>
<path fill-rule="evenodd" clip-rule="evenodd" d="M65.4577 276.076C65.5654 275.627 66.0163 275.351 66.4649 275.459C74.0573 277.282 84.9806 280.773 93.0326 285.339C97.0463 287.616 100.444 290.212 102.32 293.081C103.266 294.528 103.843 296.072 103.89 297.693C103.936 299.321 103.445 300.957 102.369 302.577C98.173 308.892 91.4405 310.692 84.9065 310.447C78.3831 310.202 71.9102 307.925 67.9292 305.9C67.518 305.691 67.3542 305.188 67.5634 304.777C67.7725 304.366 68.2754 304.202 68.6866 304.411C72.5149 306.358 78.7497 308.544 84.9692 308.777C91.1781 309.01 97.2237 307.302 100.978 301.652C101.889 300.28 102.255 298.978 102.22 297.741C102.184 296.497 101.741 295.249 100.922 293.995C99.2665 291.464 96.1502 289.028 92.2085 286.793C84.3497 282.336 73.5963 278.889 66.0749 277.083C65.6263 276.976 65.35 276.525 65.4577 276.076Z" fill="black"/>
<path fill-rule="evenodd" clip-rule="evenodd" d="M129.216 248.972C129.659 249.1 129.915 249.563 129.786 250.007C127.902 256.519 126.05 266.33 126.582 274.617C126.848 278.764 127.707 282.443 129.381 285.133C131.029 287.781 133.479 289.499 137.08 289.77C140.721 290.044 143.564 288.857 145.813 286.741C148.087 284.601 149.779 281.48 150.999 277.873C153.44 270.656 153.899 261.758 153.561 255.758C153.535 255.297 153.887 254.903 154.348 254.877C154.808 254.851 155.203 255.203 155.229 255.664C155.574 261.783 155.115 270.916 152.582 278.408C151.315 282.155 149.506 285.559 146.958 287.957C144.385 290.38 141.085 291.747 136.955 291.436C132.786 291.122 129.872 289.084 127.963 286.016C126.08 282.992 125.189 278.997 124.915 274.724C124.366 266.17 126.269 256.151 128.182 249.542C128.31 249.099 128.773 248.844 129.216 248.972Z" fill="black"/>
<path fill-rule="evenodd" clip-rule="evenodd" d="M147.596 286.851C148.008 286.644 148.51 286.81 148.717 287.223C150.639 291.052 152.933 292.752 155.243 293.219C157.592 293.693 160.174 292.94 162.739 291.402C165.293 289.869 167.734 287.614 169.746 285.267C171.76 282.917 173.303 280.524 174.089 278.75C174.275 278.328 174.769 278.137 175.19 278.324C175.612 278.51 175.803 279.004 175.616 279.426C174.747 281.389 173.102 283.919 171.015 286.354C168.925 288.792 166.351 291.183 163.598 292.834C160.855 294.48 157.837 295.447 154.913 294.856C151.95 294.258 149.299 292.106 147.224 287.972C147.017 287.56 147.183 287.058 147.596 286.851Z" fill="black"/>
<path d="M532.972 358.748C556.357 319.774 501.533 290.413 476.07 289.374C453.315 288.445 418.387 323.671 421.505 343.938C419.107 361.414 432.295 377.658 448.008 393.825C468.039 414.436 491.659 434.359 496.336 429.682C498.675 427.343 500.234 425.784 493.998 416.431C504.131 428.123 523.619 439.815 529.854 435.138C536.09 430.461 529.075 421.887 530.634 423.446C532.193 425.005 548.562 438.256 557.137 429.682C563.996 422.822 553.759 410.195 547.783 404.738C551.68 406.557 560.255 409.415 563.373 406.297C567.27 402.4 572.726 398.502 532.972 358.748Z" fill="#01B0B5"/>
<path fill-rule="evenodd" clip-rule="evenodd" d="M532.775 357.387C533.101 357.713 533.101 358.242 532.775 358.568C530.655 360.688 527.148 363.563 523.498 365.281C519.907 366.971 515.786 367.703 512.886 364.804C509.452 361.37 509.333 355.724 510.32 350.986C510.822 348.581 511.624 346.32 512.51 344.547C512.953 343.661 513.425 342.882 513.902 342.262C514.208 341.864 514.538 341.502 514.887 341.223C514.418 340.889 513.638 340.448 512.542 339.876C511.753 339.464 510.817 338.993 509.76 338.461C507.527 337.337 504.752 335.941 501.675 334.253C492.575 329.263 480.589 321.606 470.752 310.194C470.45 309.845 470.489 309.318 470.839 309.016C471.188 308.715 471.716 308.754 472.017 309.104C481.667 320.297 493.455 327.84 502.478 332.788C505.533 334.464 508.244 335.828 510.464 336.945C511.534 337.483 512.49 337.964 513.315 338.395C514.551 339.04 515.542 339.597 516.123 340.063C516.274 340.184 516.419 340.315 516.54 340.458C516.655 340.594 516.788 340.785 516.852 341.028C516.924 341.302 516.897 341.608 516.728 341.882C516.578 342.126 516.361 342.269 516.189 342.355C515.966 342.467 515.633 342.751 515.226 343.28C514.832 343.793 514.414 344.475 514.005 345.294C513.186 346.932 512.429 349.056 511.956 351.327C510.994 355.943 511.265 360.821 514.067 363.623C516.157 365.712 519.31 365.405 522.787 363.769C526.204 362.161 529.556 359.424 531.594 357.387C531.92 357.06 532.449 357.06 532.775 357.387ZM515.279 341.555C515.279 341.555 515.278 341.554 515.276 341.551ZM515.442 340.861C515.444 340.859 515.445 340.859 515.446 340.859Z" fill="black"/>
<path fill-rule="evenodd" clip-rule="evenodd" d="M546.832 403.752C546.52 404.092 545.992 404.115 545.651 403.804L509.015 370.286C508.675 369.975 508.652 369.446 508.963 369.106C509.274 368.765 509.803 368.742 510.143 369.053L546.779 402.571C547.119 402.883 547.143 403.411 546.832 403.752Z" fill="black"/>
<path fill-rule="evenodd" clip-rule="evenodd" d="M530.437 423.266C530.11 423.592 529.582 423.592 529.255 423.266L492.619 386.63C492.293 386.303 492.293 385.774 492.619 385.448C492.946 385.122 493.474 385.122 493.801 385.448L530.437 422.084C530.763 422.41 530.763 422.939 530.437 423.266Z" fill="black"/>
<path fill-rule="evenodd" clip-rule="evenodd" d="M493.801 416.25C493.474 416.576 492.946 416.576 492.619 416.25L474.691 398.322C474.365 397.996 474.365 397.467 474.691 397.141C475.017 396.814 475.546 396.814 475.872 397.141L493.801 415.069C494.127 415.395 494.127 415.924 493.801 416.25Z" fill="black"/>
<path fill-rule="evenodd" clip-rule="evenodd" d="M512.624 364.659C497.522 388.571 474.351 399.281 464.566 401.661C464.118 401.77 463.666 401.495 463.557 401.047C463.448 400.598 463.723 400.147 464.172 400.038C473.615 397.741 496.381 387.248 511.212 363.767C511.458 363.377 511.974 363.261 512.364 363.507C512.754 363.753 512.871 364.269 512.624 364.659Z" fill="black"/>
<path d="M182.435 87.2003C178.963 109.145 190.564 128.006 196.799 134.693C229.719 169.099 285.159 164.389 289.748 164.113C294.337 163.838 318.409 158.248 325.484 114.995C354.954 90.3843 342.798 70.9737 333.036 64.3448C335.118 45.3386 322.206 37.3635 308.063 39.5939C304.805 23.6712 283.367 19.4317 271.932 28.4078C270.077 12.8613 242.371 3.93229 224.64 30.7858C194.3 31.6859 186.775 59.7689 182.435 87.2003Z" fill="#A774EB"/>
<path fill-rule="evenodd" clip-rule="evenodd" d="M224.22 32.824C242.928 35.4117 249.123 43.4895 249.73 47.7017L249.733 47.7249L249.735 47.7483C250.262 53.7903 245.61 66.2429 224.646 71.5067C233.811 82.5172 236.951 95.6992 237.137 107.753C237.329 120.183 234.381 131.479 231.586 138.112C231.407 138.537 230.917 138.736 230.492 138.557C230.067 138.378 229.867 137.888 230.046 137.463C232.76 131.023 235.654 119.956 235.467 107.779C235.279 95.6089 232.016 82.3965 222.497 71.5642L221.571 70.5113L222.938 70.1985C244.412 65.2811 248.505 53.0636 248.073 47.9173C247.605 44.809 242.388 37.0235 223.991 34.4789C223.534 34.4157 223.214 33.994 223.278 33.537C223.341 33.08 223.763 32.7608 224.22 32.824Z" fill="black"/>
<path fill-rule="evenodd" clip-rule="evenodd" d="M271.463 30.4411C271.922 30.4778 272.265 30.8803 272.229 31.3402C271.109 45.3667 269.429 55.8816 267.375 63.724C265.323 71.5593 262.886 76.7764 260.219 80.1647C257.534 83.577 254.62 85.1284 251.691 85.6157C248.799 86.0967 245.974 85.5253 243.493 84.8605C239.274 83.73 236.683 80.8721 235.173 77.8228C233.672 74.7918 233.211 71.5277 233.246 69.4202C233.254 68.9589 233.634 68.5913 234.096 68.5991C234.557 68.6068 234.925 68.987 234.917 69.4483C234.885 71.3361 235.306 74.3282 236.67 77.0813C238.024 79.8162 240.281 82.2704 243.925 83.2468C246.359 83.8989 248.894 84.3873 251.416 83.9677C253.901 83.5543 256.457 82.2446 258.906 79.1316C261.375 75.9946 263.737 71.0224 265.759 63.3007C267.78 55.5862 269.449 45.1766 270.563 31.2073C270.6 30.7474 271.003 30.4044 271.463 30.4411Z" fill="black"/>
<path fill-rule="evenodd" clip-rule="evenodd" d="M309.148 42.0299C309.594 42.1493 309.858 42.6073 309.739 43.0529C309.171 45.1715 308.583 47.4684 307.964 49.8839C306.541 55.4376 304.958 61.6183 303.097 67.6995C300.426 76.4265 297.153 85.056 292.885 91.4863C290.327 95.3397 287.377 98.4567 283.932 100.313C280.462 102.182 276.539 102.745 272.127 101.563C266.981 100.184 262.835 96.7176 260.125 93.0819C258.768 91.2609 257.753 89.3743 257.15 87.6487C256.555 85.9488 256.323 84.3014 256.668 83.0115C256.788 82.5659 257.246 82.3014 257.691 82.4208C258.137 82.5402 258.401 82.9983 258.282 83.4439C258.063 84.2602 258.177 85.5273 258.726 87.0969C259.267 88.6408 260.194 90.3787 261.465 92.0836C264.011 95.4998 267.864 98.6912 272.559 99.9493C276.563 101.022 280.048 100.508 283.139 98.8421C286.256 97.1631 289.021 94.2867 291.493 90.5623C295.623 84.3407 298.839 75.9018 301.499 67.2106C303.349 61.1672 304.915 55.0537 306.333 49.5156C306.955 47.0886 307.548 44.7721 308.125 42.6205C308.244 42.1749 308.702 41.9105 309.148 42.0299Z" fill="black"/>
<path fill-rule="evenodd" clip-rule="evenodd" d="M333.092 65C333.538 65.1194 333.803 65.5775 333.683 66.0231C331.54 74.0196 327.635 85.1042 322.384 93.7149C319.76 98.0173 316.767 101.759 313.441 104.176C310.095 106.607 306.365 107.727 302.366 106.655C293.563 104.297 290.507 97.1399 291.772 92.4172C291.891 91.9716 292.35 91.7071 292.795 91.8265C293.241 91.9459 293.505 92.404 293.386 92.8496C292.394 96.5518 294.752 102.886 302.799 105.042C306.187 105.95 309.405 105.043 312.458 102.824C315.531 100.591 318.388 97.0588 320.958 92.8451C326.094 84.4237 329.948 73.5079 332.069 65.5907C332.189 65.1451 332.647 64.8806 333.092 65Z" fill="black"/>
<path fill-rule="evenodd" clip-rule="evenodd" d="M315.045 103.817C315.503 103.872 315.829 104.288 315.774 104.746C315.585 106.315 315.798 108.649 316.998 110.542C318.159 112.373 320.313 113.907 324.283 113.842C324.744 113.834 325.124 114.202 325.132 114.663C325.139 115.124 324.772 115.504 324.31 115.512C319.815 115.586 317.088 113.805 315.587 111.437C314.125 109.13 313.895 106.379 314.115 104.546C314.17 104.088 314.587 103.762 315.045 103.817Z" fill="black"/>
<path d="M418.083 200.412H421.184V192.179C421.184 185.408 420.792 180.881 420.007 178.6C419.295 176.248 417.869 175.072 415.731 175.072C414.447 175.072 413.271 175.428 412.202 176.141C411.204 176.783 410.705 177.709 410.705 178.921C410.705 180.062 410.919 181.238 411.347 182.45H414.02C414.59 183.946 414.875 185.764 414.875 187.903C414.875 189.97 413.984 191.787 412.202 193.356C410.42 194.852 408.175 195.601 405.466 195.601C399.336 195.601 396.271 192.643 396.271 186.726C396.271 177.959 403.72 173.575 418.617 173.575C427.1 173.575 432.945 175.036 436.153 177.959C439.432 180.81 441.071 186.085 441.071 193.783V215.488C441.071 219.195 442.105 221.048 444.172 221.048C446.595 221.048 448.021 217.377 448.449 210.035L450.053 210.142C449.767 216.415 448.591 220.728 446.524 223.08C444.457 225.432 441.071 226.608 436.367 226.608C427.813 226.608 422.894 223.971 421.611 218.696C420.685 221.405 419.295 223.401 417.441 224.684C415.588 225.967 412.879 226.608 409.315 226.608C398.766 226.608 393.491 222.296 393.491 213.671C393.491 208.61 395.487 205.153 399.478 203.299C403.541 201.375 409.743 200.412 418.083 200.412ZM413.806 213.564C413.806 217.271 413.984 219.658 414.341 220.728C414.768 221.797 415.517 222.332 416.586 222.332C417.726 222.332 418.76 221.441 419.687 219.658C420.685 217.805 421.184 215.275 421.184 212.067V202.123H420.435C416.016 202.123 413.806 205.367 413.806 211.853V213.564Z" fill="black"/>
<path d="M376.761 177.638C374.123 177.638 371.807 179.349 369.811 182.77C367.815 186.192 366.817 190.255 366.817 194.959V223.615H374.408V225.539H341.049V223.615H346.929V176.569H341.049V174.644H366.817V184.909C367.744 181.273 369.526 178.493 372.163 176.569C374.801 174.573 377.794 173.575 381.145 173.575C384.495 173.575 387.203 174.537 389.271 176.462C391.409 178.315 392.478 180.988 392.478 184.481C392.478 187.903 391.694 190.54 390.126 192.393C388.558 194.247 386.134 195.173 382.855 195.173C379.648 195.173 377.26 194.104 375.692 191.966C374.195 189.827 374.016 186.869 375.157 183.091H379.006C380.788 179.456 380.04 177.638 376.761 177.638Z" fill="black"/>
<path d="M299.895 203.406C299.895 210.891 300.287 215.881 301.072 218.375C301.856 220.799 303.281 222.011 305.348 222.011C307.487 222.011 309.305 221.084 310.801 219.231C312.37 217.377 313.154 214.633 313.154 210.998V187.689C313.154 184.624 312.548 182.022 311.336 179.883C310.124 177.745 308.342 176.676 305.99 176.676C303.638 176.676 302.034 178.244 301.178 181.38C300.323 184.517 299.895 190.005 299.895 197.846V203.406ZM314.544 225.539L313.368 218.055C310.944 223.757 306.026 226.608 298.612 226.608C292.482 226.608 287.706 224.399 284.285 219.979C280.935 215.56 279.259 208.966 279.259 200.199C279.259 182.45 286.316 173.575 300.43 173.575C306.703 173.575 310.837 175.321 312.833 178.814V147.272H306.311V145.347H333.041V223.615H338.28V225.539H314.544Z" fill="black"/>
<path d="M251.179 226.608C241.984 226.608 235.069 224.256 230.436 219.552C225.874 214.776 223.593 208.182 223.593 199.771C223.593 191.288 226.159 184.802 231.291 180.311C236.495 175.82 243.088 173.575 251.072 173.575C267.253 173.575 275.023 181.701 274.381 197.953H244.229V202.123C244.229 209.109 245.12 214.384 246.902 217.948C248.684 221.512 251.785 223.294 256.204 223.294C264.473 223.294 269.89 218.874 272.456 210.035L274.381 210.356C273.027 215.488 270.567 219.48 267.003 222.332C263.511 225.183 258.236 226.608 251.179 226.608ZM244.336 195.815H255.349V190.576C255.349 184.802 254.992 180.881 254.28 178.814C253.638 176.676 252.284 175.606 250.217 175.606C248.221 175.606 246.724 176.747 245.726 179.028C244.799 181.238 244.336 185.087 244.336 190.576V195.815Z" fill="black"/>
<path d="M204.841 167.267C201.063 167.267 198.354 166.304 196.714 164.38C195.146 162.455 194.362 160.067 194.362 157.216C194.362 154.365 195.218 152.012 196.928 150.159C198.71 148.306 201.383 147.379 204.948 147.379C208.512 147.379 211.22 148.234 213.074 149.945C214.927 151.585 215.854 153.973 215.854 157.109C215.854 160.174 214.963 162.633 213.181 164.487C211.398 166.34 208.619 167.267 204.841 167.267ZM188.695 174.644H214.891V223.615H220.879V225.539H189.123V223.615H195.004V176.569H188.695V174.644Z" fill="black"/>
<path d="M121.891 150.694H153.327C164.09 150.694 172.109 152.262 177.384 155.398C182.659 158.463 185.296 163.988 185.296 171.971C185.296 180.81 182.089 186.905 175.673 190.255C169.686 193.32 161.31 194.853 150.547 194.853H149.691V223.508H163.057V225.539H121.891V223.508H128.841V152.725H121.891V150.694ZM149.691 152.725V192.821H151.937C156.214 192.821 159.172 191.36 160.811 188.437C162.451 185.515 163.27 180.774 163.27 174.217V169.084C163.27 163.025 162.486 158.784 160.918 156.36C159.421 153.937 156.641 152.725 152.578 152.725H149.691Z" fill="black"/>
<path d="M508.715 293.02V283.932C508.715 277.018 508.323 271.992 507.539 268.856C506.826 265.648 505.116 264.045 502.407 264.045C500.839 264.045 499.556 264.508 498.558 265.435C497.631 266.29 496.954 267.751 496.526 269.818C495.885 273.026 495.564 277.909 495.564 284.467V292.807C495.564 300.576 495.778 305.245 496.206 306.813C496.705 308.382 497.203 309.665 497.702 310.663C498.487 312.373 500.019 313.229 502.3 313.229C505.08 313.229 506.898 311.625 507.753 308.417C508.395 306.136 508.715 301.004 508.715 293.02ZM502.086 315.153C493.176 315.153 486.44 312.872 481.878 308.31C477.316 303.748 475.035 297.226 475.035 288.744C475.035 280.19 477.458 273.632 482.306 269.07C487.224 264.437 494.103 262.12 502.942 262.12C511.781 262.12 518.374 264.258 522.722 268.535C527.07 272.741 529.245 279.192 529.245 287.888C529.245 306.065 520.192 315.153 502.086 315.153Z" fill="black"/>
<path d="M420.708 233.892H446.904V312.16H452.892V314.084H421.136V312.16H427.017V235.817H420.708V233.892Z" fill="black"/>
<path d="M394.125 315.153C384.929 315.153 378.015 312.801 373.382 308.097C368.82 303.321 366.539 296.727 366.539 288.316C366.539 279.833 369.105 273.347 374.237 268.856C379.441 264.365 386.034 262.12 394.018 262.12C410.199 262.12 417.968 270.246 417.327 286.498H387.175V290.668C387.175 297.654 388.066 302.929 389.848 306.493C391.63 310.057 394.731 311.839 399.15 311.839C407.419 311.839 412.836 307.419 415.402 298.58L417.327 298.901C415.973 304.033 413.513 308.025 409.949 310.876C406.456 313.728 401.182 315.153 394.125 315.153ZM387.282 284.36H398.295V279.121C398.295 273.347 397.938 269.426 397.226 267.359C396.584 265.221 395.23 264.151 393.162 264.151C391.167 264.151 389.67 265.292 388.672 267.573C387.745 269.783 387.282 273.632 387.282 279.121V284.36Z" fill="black"/>
<path d="M342.172 285.322C342.172 277.98 341.816 273.062 341.103 270.567C340.39 268.001 339 266.718 336.933 266.718C334.866 266.718 333.013 268.072 331.373 270.781C329.734 273.418 328.914 276.982 328.914 281.473V301.04C328.914 304.105 329.52 306.707 330.732 308.845C331.943 310.983 333.725 312.053 336.078 312.053C338.43 312.053 340.034 310.484 340.889 307.348C341.745 304.212 342.172 298.723 342.172 290.882V285.322ZM328.7 263.189V271.636C331.48 265.292 336.398 262.12 343.455 262.12C349.586 262.12 354.326 264.33 357.676 268.749C361.098 273.169 362.808 279.869 362.808 288.851C362.808 297.832 360.955 304.461 357.248 308.738C353.613 313.015 348.124 315.153 340.782 315.153C337.361 315.153 334.795 314.726 333.084 313.87C331.373 313.015 329.983 311.696 328.914 309.914V337.607H342.707V339.532H303.146V337.607H309.026V265.114H303.359V263.189H328.7Z" fill="black"/>
<path d="M271.169 288.957H274.27V280.724C274.27 273.953 273.878 269.426 273.094 267.145C272.381 264.793 270.955 263.617 268.817 263.617C267.534 263.617 266.358 263.973 265.288 264.686C264.29 265.328 263.792 266.254 263.792 267.466C263.792 268.607 264.005 269.783 264.433 270.994H267.106C267.676 272.491 267.961 274.309 267.961 276.448C267.961 278.515 267.07 280.332 265.288 281.901C263.506 283.397 261.261 284.146 258.552 284.146C252.422 284.146 249.357 281.188 249.357 275.271C249.357 266.504 256.806 262.12 271.704 262.12C280.186 262.12 286.031 263.581 289.239 266.504C292.518 269.355 294.157 274.63 294.157 282.328V304.033C294.157 307.74 295.191 309.593 297.258 309.593C299.682 309.593 301.107 305.922 301.535 298.58L303.139 298.687C302.854 304.96 301.678 309.273 299.61 311.625C297.543 313.977 294.157 315.153 289.453 315.153C280.899 315.153 275.981 312.516 274.698 307.241C273.771 309.95 272.381 311.946 270.528 313.229C268.674 314.512 265.966 315.153 262.402 315.153C251.852 315.153 246.577 310.841 246.577 302.216C246.577 297.155 248.573 293.698 252.565 291.844C256.628 289.92 262.829 288.957 271.169 288.957ZM266.892 302.109C266.892 305.816 267.07 308.203 267.427 309.273C267.855 310.342 268.603 310.876 269.672 310.876C270.813 310.876 271.846 309.985 272.773 308.203C273.771 306.35 274.27 303.82 274.27 300.612V290.668H273.521C269.102 290.668 266.892 293.911 266.892 300.398V302.109Z" fill="black"/>
<path d="M182.035 239.239H213.47C224.234 239.239 232.253 240.807 237.528 243.943C242.803 247.008 245.44 252.533 245.44 260.516C245.44 269.355 242.233 275.45 235.817 278.8C229.83 281.865 221.454 283.397 210.69 283.397H209.835V312.053H223.2V314.084H182.035V312.053H188.985V241.27H182.035V239.239ZM209.835 241.27V281.366H212.08C216.357 281.366 219.316 279.905 220.955 276.982C222.594 274.06 223.414 269.319 223.414 262.761V257.629C223.414 251.57 222.63 247.329 221.062 244.905C219.565 242.482 216.785 241.27 212.722 241.27H209.835Z" fill="black"/>
<path d="M413.175 377.502H416.276V369.269C416.276 362.498 415.884 357.971 415.1 355.69C414.387 353.338 412.962 352.162 410.823 352.162C409.54 352.162 408.364 352.518 407.295 353.231C406.297 353.873 405.798 354.799 405.798 356.011C405.798 357.152 406.012 358.328 406.439 359.539H409.112C409.683 361.036 409.968 362.854 409.968 364.993C409.968 367.06 409.077 368.877 407.295 370.446C405.513 371.942 403.267 372.691 400.559 372.691C394.428 372.691 391.363 369.733 391.363 363.816C391.363 355.049 398.812 350.665 413.71 350.665C422.193 350.665 428.038 352.126 431.245 355.049C434.524 357.9 436.164 363.175 436.164 370.873V392.578C436.164 396.285 437.197 398.138 439.264 398.138C441.688 398.138 443.114 394.467 443.541 387.125L445.145 387.232C444.86 393.505 443.684 397.818 441.617 400.17C439.55 402.522 436.164 403.698 431.459 403.698C422.905 403.698 417.987 401.061 416.704 395.786C415.777 398.495 414.387 400.491 412.534 401.774C410.681 403.057 407.972 403.698 404.408 403.698C393.858 403.698 388.583 399.386 388.583 390.761C388.583 385.7 390.579 382.243 394.571 380.389C398.634 378.465 404.835 377.502 413.175 377.502ZM408.898 390.654C408.898 394.36 409.077 396.748 409.433 397.818C409.861 398.887 410.609 399.421 411.678 399.421C412.819 399.421 413.853 398.53 414.779 396.748C415.777 394.895 416.276 392.365 416.276 389.157V379.213H415.528C411.108 379.213 408.898 382.456 408.898 388.943V390.654Z" fill="black"/>
<path d="M371.853 354.728C369.216 354.728 366.899 356.439 364.903 359.86C362.907 363.282 361.91 367.345 361.91 372.049V400.705H369.501V402.629H336.141V400.705H342.022V353.659H336.141V351.734H361.91V361.999C362.836 358.363 364.618 355.583 367.256 353.659C369.893 351.663 372.887 350.665 376.237 350.665C379.587 350.665 382.296 351.627 384.363 353.552C386.502 355.405 387.571 358.078 387.571 361.571C387.571 364.992 386.787 367.63 385.219 369.483C383.65 371.337 381.227 372.263 377.948 372.263C374.74 372.263 372.352 371.194 370.784 369.056C369.287 366.917 369.109 363.959 370.249 360.181H374.099C375.881 356.546 375.132 354.728 371.853 354.728Z" fill="black"/>
<path d="M309.13 403.698C299.935 403.698 293.02 401.346 288.387 396.641C283.825 391.866 281.544 385.272 281.544 376.861C281.544 368.378 284.11 361.892 289.242 357.401C294.446 352.91 301.04 350.665 309.023 350.665C325.204 350.665 332.974 358.791 332.332 375.043H302.18V379.213C302.18 386.199 303.071 391.474 304.853 395.038C306.635 398.602 309.736 400.384 314.155 400.384C322.424 400.384 327.841 395.964 330.408 387.125L332.332 387.446C330.978 392.578 328.519 396.57 324.954 399.421C321.462 402.273 316.187 403.698 309.13 403.698ZM302.287 372.905H313.3V367.666C313.3 361.892 312.944 357.971 312.231 355.904C311.589 353.766 310.235 352.696 308.168 352.696C306.172 352.696 304.675 353.837 303.677 356.118C302.75 358.328 302.287 362.177 302.287 367.666V372.905Z" fill="black"/>
<path d="M230.109 344.357C226.331 344.357 223.623 343.394 221.983 341.47C220.415 339.545 219.631 337.157 219.631 334.306C219.631 331.455 220.486 329.102 222.197 327.249C223.979 325.396 226.652 324.469 230.216 324.469C233.78 324.469 236.489 325.324 238.342 327.035C240.196 328.675 241.122 331.063 241.122 334.199C241.122 337.264 240.231 339.723 238.449 341.577C236.667 343.43 233.887 344.357 230.109 344.357ZM213.964 351.734H240.16V400.705H246.148V402.629H214.392V400.705H220.273V353.659H213.964V351.734ZM274.054 351.734V393.434C274.054 405.124 272.023 414.034 267.96 420.164C263.968 426.295 257.41 429.36 248.286 429.36C242.37 429.36 238.022 428.184 235.242 425.831C232.533 423.479 231.179 420.735 231.179 417.598C231.179 414.462 232.105 412.038 233.959 410.328C235.812 408.688 238.129 407.868 240.909 407.868C243.689 407.868 245.756 408.617 247.11 410.114C248.536 411.682 249.248 413.393 249.248 415.246C249.248 417.099 249.035 418.881 248.607 420.592H244.544C243.403 422.517 243.225 424.156 244.009 425.511C244.865 426.865 246.362 427.542 248.5 427.542C250.71 427.542 252.207 426.295 252.991 423.8C253.775 421.376 254.167 416.315 254.167 408.617V353.659H247.217V351.734H274.054ZM263.897 344.357C260.119 344.357 257.41 343.394 255.771 341.47C254.203 339.545 253.418 337.157 253.418 334.306C253.418 331.455 254.274 329.102 255.985 327.249C257.767 325.396 260.44 324.469 264.004 324.469C267.568 324.469 270.277 325.324 272.13 327.035C273.983 328.675 274.91 331.063 274.91 334.199C274.91 337.264 274.019 339.723 272.237 341.577C270.455 343.43 267.675 344.357 263.897 344.357Z" fill="black"/>
<path d="M208.338 327.784L209.407 354.621H207.376C204.239 345.141 201.46 338.69 199.036 335.268C196.612 331.775 193.12 330.029 188.558 330.029H187.274V400.384H196.363V402.629H157.336V400.384H166.425V330.029H165.035C160.473 330.029 156.944 331.847 154.449 335.482C151.955 339.046 149.21 345.426 146.216 354.621H144.185L145.254 327.784H208.338Z" fill="black"/>
</svg>
