<svg width="135" height="169" viewBox="0 0 135 169" fill="none" xmlns="http://www.w3.org/2000/svg">
<path d="M133.856 77.0807C131.862 96.0161 118.076 109.055 111.432 113.207C76.5513 134.385 31.7044 118.19 27.9672 116.944C24.2299 115.699 5.54374 105.733 9.28097 68.3603C-9.65436 41.4522 4.71324 28.0812 14.264 24.7592C16.7555 8.56471 29.2129 4.82726 40.4246 9.81024C46.6534 -2.64722 65.3395 -1.40147 72.814 8.56471C77.797 -3.89275 102.712 -5.13849 111.432 21.0222C136.347 28.4967 136.347 53.4116 133.856 77.0807Z" fill="#F96B4F"/>
<path d="M112.585 149.218C106.945 144.518 100.836 126.111 102.011 115.145C79.6866 113.187 30.339 108.499 30.339 115.145C30.339 138.644 25.4041 148.513 33.8638 159.793C51.488 183.291 119.635 155.093 112.585 149.218Z" fill="#F96B4F"/>
<path d="M82.5876 108.224C80.9266 96.1815 82.8367 68.609 103.765 54.6566C86.8231 45.6873 85.9096 34.3095 87.5706 29.7417C88.8163 26.835 95.2942 21.5198 111.24 23.513" stroke="black" stroke-linecap="round"/>
<path d="M95.0452 50.9198C94.2147 54.2418 90.8096 60.8857 83.8335 60.8857C75.1132 60.8857 63.9015 58.3942 72.6217 11.0559" stroke="black" stroke-linecap="round"/>
<path d="M38.9864 12.3015C38.9864 24.7672 38.0119 43.5672 42.1576 55.9026C44.6407 63.2909 48.9606 68.3601 56.4269 68.3601C65.158 68.3601 72.6216 60.8856 72.6216 57.1484" stroke="black" stroke-linecap="round"/>
<path d="M14.0714 26.0045C14.0714 40.123 17.1579 65.8684 30.2661 65.8684C37.7405 65.8684 41.4778 60.8854 41.4778 57.1482" stroke="black" stroke-linecap="round"/>
<path d="M20.3005 62.1313C19.8853 65.0381 17.3107 70.3533 10.3346 68.3601" stroke="black" stroke-linecap="round"/>
</svg>
