<svg width="109" height="163" viewBox="0 0 109 163" fill="none" xmlns="http://www.w3.org/2000/svg">
<path d="M26.5665 64.8505C-15.9584 75.4817 1.40593 132.89 18.0615 150.963C32.9452 167.114 80.7857 166.91 92.4801 150.963C106.033 140.682 108.117 120.611 108.427 98.8704C108.822 71.1557 106.301 41.4618 99.9219 41.4618C96.7326 41.4618 94.6063 41.4618 92.4801 52.093C93.5432 37.2093 88.2276 15.9468 80.7857 14.8837C73.3439 13.8206 72.2808 24.4518 72.2808 22.3256C72.2808 20.1993 70.1545 0 58.4601 0C49.1047 0 47.4745 15.5925 47.8289 23.3887C46.4114 19.4906 42.5133 11.6943 38.2608 11.6943C32.9452 11.6943 26.5665 10.6312 26.5665 64.8505Z" fill="#01B0B5"/>
<path d="M26.5781 65.9137C32.2481 65.9137 43.5881 67.6147 43.5881 74.4187C43.5881 82.9237 29.7675 89.3024 26.5781 88.2393C23.3888 87.1761 37.2093 111.628 35.0831 140.332" stroke="black" stroke-linecap="round"/>
<path d="M47.8408 25.515L49.9671 73.3555" stroke="black" stroke-linecap="round"/>
<path d="M72.2925 23.3888V73.3556" stroke="black" stroke-linecap="round"/>
<path d="M92.4919 53.1562V77.6081" stroke="black" stroke-linecap="round"/>
<path d="M102.06 82.9234C93.9094 77.9621 71.0168 69.528 44.6514 75.4815" stroke="black" stroke-linecap="round"/>
</svg>
