<svg width="121" height="111" viewBox="0 0 121 111" fill="none" xmlns="http://www.w3.org/2000/svg">
<path d="M0.942658 68.9797C2.72637 85.925 15.0637 97.5934 21.0094 101.31C52.2244 120.262 92.3579 105.769 95.7024 104.654C99.0469 103.539 115.769 94.6204 112.425 61.1758C129.37 37.0956 116.512 25.1299 107.965 22.1571C105.736 7.66458 94.5876 4.31993 84.5542 8.77921C78.9801 -2.36899 62.2578 -1.25417 55.5689 7.66458C51.1096 -3.48362 28.8132 -4.59844 21.0094 18.8128C-1.28698 25.5017 -1.28698 47.7981 0.942658 68.9797Z" fill="#A774EB"/>
<path d="M46.8225 96.8495C48.3089 86.0729 46.5995 61.3982 27.8706 48.9122C43.0321 40.8855 43.8497 30.7035 42.3632 26.6158C41.2484 24.0146 35.4513 19.258 21.1816 21.0417" stroke="black" stroke-linecap="round"/>
<path d="M35.6743 45.5684C36.4175 48.5413 39.4647 54.487 45.7077 54.487C53.5114 54.487 63.5448 52.2573 55.7411 9.89417" stroke="black" stroke-linecap="round"/>
<path d="M85.8414 11.0088C85.8414 22.1643 86.7135 38.9885 83.0035 50.0275C80.7813 56.6393 76.9155 61.1757 70.2339 61.1757C62.4204 61.1757 55.7412 54.4868 55.7412 51.1423" stroke="black" stroke-linecap="round"/>
<path d="M108.138 23.2719C108.138 35.9065 105.375 58.9461 93.645 58.9461C86.956 58.9461 83.6116 54.4868 83.6116 51.1424" stroke="black" stroke-linecap="round"/>
<path d="M102.563 55.6017C102.935 58.2029 105.239 62.9595 111.482 61.1758" stroke="black" stroke-linecap="round"/>
</svg>
