<svg width="41" height="44" viewBox="0 0 41 44" fill="none" xmlns="http://www.w3.org/2000/svg">
<path fill-rule="evenodd" clip-rule="evenodd" d="M25.59 5.10671C25.2962 2.96186 26.5892 0.858199 28.7257 0.200414C31.1009 -0.530873 33.6193 0.801826 34.3506 3.17708L37.1675 12.3264C38.3729 16.2417 35.6998 20.2824 31.6249 20.7044L22.1027 21.6908C19.6307 21.9468 17.4191 20.1504 17.163 17.6784C16.9413 15.5377 18.2586 13.5924 20.221 12.943C19.2099 12.7622 18.3063 12.7315 17.5117 12.8019C14.9525 13.0287 12.8682 14.3576 11.3524 16.444C8.0251 21.0234 8.27019 27.756 11.7805 31.0991C15.7735 34.902 19.8046 35.2638 23.3459 34.2739C27.1843 33.2008 30.4557 30.4945 31.9763 28.2971C33.3905 26.2534 36.1937 25.7431 38.2374 27.1573C40.2811 28.5715 40.7914 31.3747 39.3772 33.4184C36.7459 37.2209 31.7674 41.2646 25.769 42.9415C19.4733 44.7015 12.0805 43.8134 5.57355 37.6163C-1.92871 30.4713 -1.27227 18.5084 4.07129 11.1538C6.89082 7.27318 11.2068 4.32543 16.7172 3.83707C19.5576 3.58534 22.531 4.00224 25.59 5.10671Z" fill="#F96B4F"/>
</svg>
