<svg width="222" height="221" viewBox="0 0 222 221" fill="none" xmlns="http://www.w3.org/2000/svg">
<path d="M22.2009 47.178C20.2194 44.0338 23.2228 40.1226 26.7719 41.2254L76.0269 56.5308C78.2557 57.2233 80.6015 55.8686 81.1156 53.5921L92.331 3.9296C93.1445 0.32748 97.9879 -0.342559 99.7488 2.90342L124.463 48.4614C125.556 50.4766 128.116 51.1624 130.07 49.9637L173.682 23.2128C176.809 21.2947 180.653 24.2467 179.607 27.763L165.02 76.8021C164.366 78.9995 165.69 81.2957 167.919 81.8317L218.312 93.9489C221.902 94.8123 222.505 99.6645 219.235 101.38L174.15 125.034C172.084 126.118 171.38 128.734 172.625 130.709L200.125 174.344C202.106 177.489 199.103 181.4 195.554 180.297L146.299 164.992C144.07 164.299 141.724 165.654 141.21 167.93L129.994 217.593C129.181 221.195 124.338 221.865 122.577 218.619L97.863 173.061C96.7698 171.046 94.2099 170.36 92.2556 171.559L48.6435 198.31C45.5163 200.228 41.6721 197.276 42.7181 193.759L57.3056 144.72C57.9593 142.523 56.6359 140.227 54.4068 139.691L4.01369 127.573C0.4232 126.71 -0.179606 121.858 3.09048 120.142L48.1753 96.4883C50.242 95.404 50.9453 92.7879 49.7009 90.8135L22.2009 47.178Z" fill="#FEC90D"/>
</svg>
