<svg width="121" height="160" viewBox="0 0 121 160" fill="none" xmlns="http://www.w3.org/2000/svg">
<path d="M28.884 4.70304C12.885 7.10289 22.2178 55.0332 28.884 78.6984C26.5508 73.032 12.0851 70.0984 4.88554 83.6978C-14.1132 150.694 34.8837 158.693 54.8824 159.693C74.8812 160.693 112.879 157.693 115.879 123.695C127.078 94.0971 116.545 92.0306 109.879 94.6971C111.879 86.3644 111.279 71.4988 92.88 78.6984C101.879 66.6994 112.879 11.7025 101.879 1.70317C93.08 -6.29633 71.548 43.7006 61.882 69.6989C57.5489 47.0337 44.883 2.30319 28.884 4.70304Z" fill="#FEC90D"/>
<path d="M28.588 77.6982C39.254 86.6977 57.7862 106.296 46.5869 112.696C35.3876 119.096 23.255 108.03 18.5886 101.697" stroke="black" stroke-linecap="round"/>
<path d="M89.5845 81.6979C81.2517 90.6973 67.5859 110.496 79.5851 117.696C91.5844 124.895 103.25 106.696 107.583 96.6969" stroke="black" stroke-linecap="round"/>
<path d="M114.583 123.695C108.917 128.362 89.5844 135.694 89.5845 119.695" stroke="black" stroke-linecap="round"/>
</svg>
